<?xml version="1.0" encoding="iso-8859-1"?>
<!-- Uploaded to: SVG Repo, www.svgrepo.com, Generator: SVG Repo Mixer Tools -->
<svg fill="#000000" height="50px" width="50px" version="1.1" id="Layer_1" xmlns="http://www.w3.org/2000/svg" xmlns:xlink="http://www.w3.org/1999/xlink" 
	 viewBox="0 0 512 512" xml:space="preserve"
	 >
<g>
	<g>
		<g>
			<path d="M248.448,380.864c4.163,4.168,10.917,4.172,15.085,0.008c0.003-0.003,0.006-0.006,0.008-0.008l85.333-85.333
				c4.093-4.237,3.976-10.99-0.261-15.083c-4.134-3.993-10.688-3.993-14.821,0l-67.125,67.136V10.667C266.667,4.776,261.891,0,256,0
				c-5.891,0-10.667,4.776-10.667,10.667v336.917l-67.125-67.125c-4.237-4.093-10.99-3.976-15.083,0.262
				c-3.993,4.134-3.993,10.687,0,14.821L248.448,380.864z"/>
			<path d="M501.333,490.667H10.667C4.776,490.667,0,495.442,0,501.333S4.776,512,10.667,512h490.667
				c5.891,0,10.667-4.776,10.667-10.667S507.224,490.667,501.333,490.667z"/>
		</g>
	</g>
</g>
</svg>